<?xml version="1.0" encoding="UTF-8"?>
<svg version="1.1" xmlns="http://www.w3.org/2000/svg" width="512" height="512">
<path d="M0 0 C5.24960537 4.04334541 10.05214476 8.31666685 14.72125411 13.01287025 C15.44003777 13.72782836 16.15882143 14.44278647 16.89938641 15.17940998 C19.28292339 17.55270953 21.65933933 19.93300734 24.03576827 22.31342262 C25.75269422 24.0259971 27.47003625 25.73815454 29.18776107 27.44992775 C33.35313446 31.60333376 37.5137993 35.76141835 41.67201772 39.92198467 C45.0530773 43.30483284 48.43590962 46.68589851 51.8199861 50.0657286 C52.3030113 50.54815861 52.78603649 51.03058861 53.28369881 51.52763771 C54.2651702 52.50789727 55.24664274 53.48815567 56.22811642 54.46841294 C65.41301505 63.64245779 74.59141205 72.82298585 83.76783052 82.00551189 C92.15390723 90.39676147 100.54817777 98.77975923 108.94633433 107.15891748 C117.5845268 115.77771918 126.21713108 124.40208164 134.84375572 133.03246212 C139.68113403 137.87174986 144.5206725 142.70882804 149.36608291 147.54007477 C153.9203216 152.08113435 158.46665616 156.63001095 163.00778174 161.18418449 C164.67367874 162.85244711 166.34212961 164.51816403 168.01333213 166.18111175 C170.2974236 168.45473397 172.572033 170.7374482 174.84454513 173.02263588 C175.50475779 173.67547426 176.16497046 174.32831264 176.84518957 175.000934 C185.95298704 184.21563021 190.38741718 194.27927523 191.27893233 207.20624489 C190.93021975 229.95974124 173.23350649 243.52821414 158.43689132 258.33441871 C156.76364642 260.01229945 155.0905967 261.69037484 153.41772628 263.36862892 C148.89765899 267.90173945 144.37432808 272.43157897 139.84996462 276.96040124 C137.02066979 279.79263696 134.1919428 282.62543903 131.36342216 285.45844787 C123.51650633 293.31753541 115.66865935 301.17569047 107.81735301 309.03039211 C107.31672007 309.53124462 106.81608713 310.03209712 106.3002835 310.54812698 C105.5476742 311.30106369 105.5476742 311.30106369 104.77986068 312.06921124 C103.76335501 313.08616036 102.74685091 314.10311103 101.73034835 315.12006325 C101.22614122 315.6244918 100.72193409 316.12892036 100.20244796 316.64863463 C92.01955423 324.83548265 83.84344684 333.02907266 75.67021035 341.22556076 C67.25919655 349.66030786 58.84254884 358.08939878 50.42024261 366.51287043 C45.69920112 371.23482678 40.98074125 375.95931463 36.26818824 380.68974441 C31.83996922 385.13443788 27.40465039 389.57192132 22.96380019 394.00399345 C21.33745282 395.62957041 19.71365932 397.25770718 18.09264731 398.88860458 C15.87606615 401.11790684 13.6503797 403.33771343 11.42222762 405.55544227 C10.4683621 406.5213924 10.4683621 406.5213924 9.49522656 407.50685668 C-0.70767131 417.59881196 -11.63661472 421.5641189 -25.97106767 421.58124489 C-46.86863486 420.04671058 -59.87719972 402.82727746 -73.7242415 388.98920387 C-75.40212223 387.31595897 -77.08019762 385.64290926 -78.7584517 383.97003883 C-83.29156223 379.44997155 -87.82140175 374.92664063 -92.35022402 370.40227717 C-95.18245974 367.57298234 -98.01526182 364.74425535 -100.84827065 361.91573471 C-108.70735819 354.06881888 -116.56551325 346.2209719 -124.42021489 338.36966556 C-124.9210674 337.86903262 -125.4219199 337.36839968 -125.93794976 336.85259605 C-126.43990757 336.35085652 -126.94186537 335.84911699 -127.45903403 335.33217323 C-128.47598314 334.31566756 -129.49293381 333.29916346 -130.50988603 332.2826609 C-131.01431458 331.77845377 -131.51874314 331.27424664 -132.03845742 330.75476051 C-140.22530543 322.57186679 -148.41889544 314.3957594 -156.61538354 306.22252291 C-165.05013064 297.8115091 -173.47922156 289.3948614 -181.90269321 280.97255516 C-186.62464956 276.25151368 -191.34913742 271.5330538 -196.07956719 266.82050079 C-200.52426066 262.39228178 -204.96174411 257.95696294 -209.39381623 253.51611274 C-211.01939319 251.88976537 -212.64752996 250.26597187 -214.27842736 248.64495987 C-216.50772962 246.4283787 -218.72753621 244.20269225 -220.94526505 241.97454017 C-221.58923181 241.33862982 -222.23319856 240.70271948 -222.89667946 240.04753911 C-231.9556271 230.88900492 -236.33541825 220.79816136 -237.22106767 207.95624489 C-236.90289303 187.19534954 -222.58007758 175.03057604 -208.93371415 161.43036598 C-207.74992054 160.24685512 -206.56634843 159.06312267 -205.38297868 157.879188 C-202.19989681 154.69582161 -199.01376203 151.51552735 -195.82703114 148.33581442 C-192.48603374 145.00110842 -189.14790654 141.66353171 -185.80946183 138.32627052 C-179.50064415 132.0205492 -173.18928386 125.71737926 -166.87698489 119.41514307 C-159.68507965 112.23445185 -152.49604577 105.05088882 -145.30724061 97.86709422 C-130.53168814 83.10196772 -115.75256942 68.34041534 -100.97106767 53.58124489 C-98.08890868 54.97484889 -95.86218805 56.37898612 -93.48766923 58.53607887 C-92.49709519 59.43489029 -92.49709519 59.43489029 -91.48650956 60.35185951 C-88.48957864 63.13815817 -85.52107603 65.95254199 -82.57018876 68.78754371 C-81.01541773 70.26426918 -79.44218831 71.72182188 -77.8504622 73.15863746 C-63.90203237 85.77207385 -63.90203237 85.77207385 -62.99694657 93.72211403 C-62.87736155 97.74997461 -63.25850625 101.64600812 -63.79876542 105.6327433 C-64.48990403 113.44857103 -59.51019617 121.59076414 -54.97106767 127.58124489 C-51.66147815 130.96326649 -48.23657308 134.44849218 -43.97106767 136.58124489 C-43.73714015 152.08873029 -43.56096661 167.59608322 -43.45294595 183.1049189 C-43.40144874 190.30661301 -43.33128533 197.50720897 -43.21667314 204.70819801 C-43.11678654 210.98700041 -43.05243674 217.26500744 -43.03018272 223.54458231 C-43.01717818 226.86815161 -42.98148466 230.18892427 -42.9137671 233.51189369 C-42.8410481 237.22843383 -42.83118076 240.94027854 -42.83581376 244.65741676 C-42.799861 245.75074318 -42.76390824 246.84406959 -42.72686601 247.97052711 C-42.79009925 252.66563043 -42.93405442 255.45248566 -46.18918061 258.9955973 C-48.70821058 261.00288548 -51.30332729 262.78077778 -53.97106767 264.58124489 C-61.93371346 273.98105114 -64.56715328 284.06944873 -64.25231767 296.19061989 C-63.34852354 307.08636019 -58.5956541 316.50835407 -50.59606767 323.95624489 C-46.67737961 327.22291593 -42.72268664 329.72471291 -37.97106767 331.58124489 C-37.08161454 331.93702614 -36.19216142 332.29280739 -35.27575517 332.65936989 C-25.02747465 335.51822828 -12.28924979 334.75801273 -2.97106767 329.58124489 C7.35719895 322.93694598 14.57541237 314.22451006 17.64611983 302.15546364 C19.76435593 287.91140659 16.81676331 276.68889501 8.41955733 265.15155739 C6.25408496 262.82332075 4.59009626 261.69541187 1.93628097 260.06558937 C-0.47138035 258.26750091 -1.7559181 257.23706042 -2.69965959 254.36036247 C-2.95587426 251.63094095 -2.96135302 249.00182032 -2.87927079 246.26142067 C-2.880439 245.2364196 -2.88160722 244.21141853 -2.88281083 243.15535682 C-2.87725066 239.77769712 -2.81509211 236.40359768 -2.75231767 233.02655739 C-2.73739189 230.68102647 -2.72600647 228.33547057 -2.71801591 225.98990577 C-2.68750923 219.82431554 -2.60895554 213.66023942 -2.52038407 207.49524635 C-2.43846288 201.20120423 -2.40199081 194.90691678 -2.36169267 188.61249489 C-2.27596261 176.2680806 -2.13947073 163.92478878 -1.97106767 151.58124489 C6.28820345 158.59870323 14.08719456 166.04610639 21.84729171 173.61005348 C23.63712221 175.34285187 25.43932492 177.0629602 27.25354171 178.77020973 C29.88746021 181.25202468 32.47637698 183.77398543 35.06018233 186.30780739 C35.87458785 187.05825325 36.68899337 187.80869911 37.52807784 188.58188576 C40.78700334 191.85072477 42.89623069 193.98675051 43.28854537 198.70066017 C43.03496918 201.71496274 42.56938607 204.60767339 42.02893233 207.58124489 C42.57835608 219.85170866 46.92644532 229.33285956 55.29065108 238.24530739 C65.69843313 247.12384329 77.62746582 249.58388358 91.02893233 248.58124489 C98.14798702 247.10688445 103.86480766 244.55937229 109.40783858 239.85077614 C111.02893233 238.58124489 111.02893233 238.58124489 114.02893233 237.58124489 C115.09334876 235.76090536 115.09334876 235.76090536 116.02893233 233.58124489 C117.00388724 232.05770811 117.98339301 230.53707788 118.96643233 229.01874489 C124.50580637 219.79548396 126.62035749 209.9449579 124.33752608 199.38202614 C122.55795816 192.97111408 120.27819368 187.7258234 116.29846358 182.38593239 C115.02893233 180.58124489 115.02893233 180.58124489 114.02893233 177.58124489 C112.18655841 176.52423514 112.18655841 176.52423514 110.02893233 175.58124489 C108.64504597 174.61467834 107.27050645 173.63463719 105.90393233 172.64374489 C99.77074047 168.59781671 94.26752594 166.21431937 86.80388045 166.86318153 C79.38661891 167.46382025 72.74807933 167.98871233 66.55435061 163.34337848 C63.6683684 160.84780917 61.004217 158.18543078 58.36096358 155.43671364 C57.18016646 154.26875991 55.99656514 153.10363524 54.81035018 151.94118446 C52.34960726 149.5082574 49.92600037 147.04483863 47.52429366 144.553657 C44.4678751 141.38891329 41.3338517 138.31733755 38.16667819 135.26391834 C35.71116223 132.8776347 33.30339213 130.44719555 30.90692878 128.00174087 C29.76831242 126.85060373 28.61583628 125.71298157 27.44877219 124.5906958 C21.29511737 118.62220935 17.5171326 114.00863284 17.35080409 105.17384762 C17.44513053 101.99320271 17.70483446 98.83796404 17.96878791 95.66774124 C18.24338374 86.14161789 12.17420185 77.32791978 6.02893233 70.58124489 C-3.2096081 62.44253069 -14.87006384 59.50598989 -26.97106767 59.58124489 C-28.01432206 59.90705543 -29.05757646 60.23286598 -30.13244462 60.56854957 C-34.49351945 60.58297277 -34.97444735 60.18149139 -38.0704329 57.39008278 C-39.5775174 55.88173387 -41.06279048 54.35138612 -42.52966142 52.80390114 C-43.71339089 51.60319229 -43.71339089 51.60319229 -44.9210341 50.3782267 C-47.43626636 47.81822627 -49.92227109 45.23182671 -52.40856767 42.64374489 C-54.1091879 40.90299966 -55.81164155 39.16404358 -57.51598954 37.42694801 C-61.6891757 33.16557604 -65.838701 28.88219182 -69.97106767 24.58124489 C-67.45751963 19.29343896 -63.46330688 15.74451515 -59.34606767 11.64374489 C-58.56360673 10.84517067 -57.78114579 10.04659645 -56.97497392 9.22382301 C-51.19483238 3.43888866 -45.29894154 -1.72629947 -37.34606767 -4.16875511 C-36.30579423 -4.50133324 -36.30579423 -4.50133324 -35.24450517 -4.84063011 C-23.8069271 -7.74915512 -9.85403802 -7.09283962 0 0 Z " fill="#E54918" transform="translate(278.97106766700745,48.41875511407852)"/>
</svg>
